/* XPM */
static char *_fb9189f8a854945f0abe29fe79793b4RAAkqzqLgTLDQb6q[] = {
/* columns rows colors chars-per-pixel */
"16 16 66 1 ",
"  c None",
". c #02070B",
"X c #0A0C0E",
"o c #030E16",
"O c #101416",
"+ c #081620",
"@ c #091621",
"# c #071824",
"$ c #071C2D",
"% c #0B1B28",
"& c #1C2125",
"* c #0E2435",
"= c #0D334F",
"- c #0F3553",
"; c #0F3554",
": c #3F4C56",
"> c #355774",
", c #4E6779",
"< c #245B85",
"1 c #1B6FAF",
"2 c #1C73B5",
"3 c #1D76BA",
"4 c #3572A1",
"5 c #3B79A9",
"6 c #387BAE",
"7 c #397CAF",
"8 c #377CB1",
"9 c #367CB2",
"0 c #367CB3",
"q c #347CB4",
"w c #546F82",
"e c #556F82",
"r c #506C84",
"t c #417DAA",
"y c #277DC0",
"u c #4582B0",
"i c #5792BF",
"p c #2E80C0",
"a c #2B85CB",
"s c #2B86CD",
"d c #3184C5",
"f c #3489CB",
"g c #388FD4",
"h c #3890D6",
"j c #3891D6",
"k c #3993D8",
"l c #3A93D9",
"z c #3D99E1",
"x c #5F97C1",
"c c #619BC8",
"v c #69A0CA",
"b c #69A9DB",
"n c #6DADDF",
"m c #7BADD5",
"M c #7CAED5",
"N c #6EB2E8",
"B c #7FBCEB",
"V c #7FBCEC",
"C c #80BDEB",
"Z c #81BDEB",
"A c #87C0EB",
"S c #87C0EC",
"D c #90C5EE",
"F c #91C5EE",
"G c #95C8EF",
"H c #9CCBEF",
/* pixels */
"       XX       ",
"      OeeO      ",
"      ,nn,      ",
"     :Mzzm:     ",
"    &rNggNr&    ",
"   +>bp77pb>+   ",
"   *j8uccu8j*   ",
"  +<d5VDDB5d<+  ",
"  %j6vDGGDv6j%  ",
"  %k8iSHHSi8k%  ",
"  %zdtZAAZtdz%  ",
"  #ykq4xx4qky#  ",
"   -skf88fks;   ",
"   $3azkkza3$   ",
"    o=1221=o    ",
"      ....      "
};
