/* XPM */
static char *f95c11dac4e54e52bcdd82ab6b99ade8PCHa32MlchUtYFMz[] = {
/* columns rows colors chars-per-pixel */
"20 20 194 2 ",
"   c #1C2437",
".  c #2C3449",
"X  c #313C4E",
"o  c #363E51",
"O  c #363E53",
"+  c #3A4557",
"@  c #3C4457",
"#  c #3B4358",
"$  c #3B4658",
"%  c #3E4659",
"&  c #3F475C",
"*  c #3E495B",
"=  c #40485B",
"-  c #434B5E",
";  c #414C60",
":  c #434E60",
">  c #444F61",
",  c #454D62",
"<  c #474F64",
"1  c #455062",
"2  c #475266",
"3  c #4C5467",
"4  c #4B5368",
"5  c #495468",
"6  c #4A5569",
"7  c #4D5568",
"8  c #4D556A",
"9  c #4C576B",
"0  c #4E566B",
"q  c #4B586B",
"w  c #4D586A",
"e  c #4E596B",
"r  c #4D586C",
"t  c #4C596C",
"y  c #4D5A6D",
"u  c #4F5A6C",
"i  c #50596A",
"p  c #50586B",
"a  c #515A6B",
"s  c #51596C",
"d  c #50586D",
"f  c #505B6D",
"g  c #525A6D",
"h  c #505B6F",
"j  c #535B6E",
"k  c #525A6F",
"l  c #535C6D",
"z  c #515C6E",
"x  c #545D6E",
"c  c #545C6F",
"v  c #535B70",
"b  c #515C70",
"n  c #515E71",
"m  c #535E70",
"M  c #555D70",
"N  c #545C71",
"B  c #565E71",
"V  c #545F73",
"C  c #575F72",
"Z  c #565E73",
"A  c #556072",
"S  c #556074",
"D  c #576276",
"F  c #586172",
"G  c #596174",
"H  c #5A6275",
"J  c #596176",
"K  c #586377",
"L  c #5D6578",
"P  c #5C6779",
"I  c #5F6879",
"U  c #5D687A",
"Y  c #5B6A7D",
"T  c #5F6A7E",
"R  c #5F6C7F",
"E  c #616C7E",
"W  c #626D7F",
"Q  c #5E6D80",
"!  c #626D81",
"~  c #616E81",
"^  c #626F82",
"/  c #646F81",
"(  c #666E81",
")  c #646F83",
"_  c #666E83",
"`  c #657082",
"'  c #667183",
"]  c #657084",
"[  c #667185",
"{  c #677284",
"}  c #647386",
"|  c #677286",
" . c #677487",
".. c #687083",
"X. c #697184",
"o. c #6A7285",
"O. c #687484",
"+. c #697486",
"@. c #6A7686",
"#. c #697488",
"$. c #687588",
"%. c #6A7589",
"&. c #697689",
"*. c #6B7688",
"=. c #6B768A",
"-. c #6A778A",
";. c #6C7489",
":. c #6C7789",
">. c #6C778B",
",. c #6B788B",
"<. c #6D788A",
"1. c #6E798B",
"2. c #6E7A8A",
"3. c #6A798C",
"4. c #6D788C",
"5. c #6C798C",
"6. c #6E798D",
"7. c #6D7A8D",
"8. c #6F7A8C",
"9. c #6F7A8E",
"0. c #6E7B8E",
"q. c #6F7C8F",
"w. c #707B8D",
"e. c #707B8F",
"r. c #717C8E",
"t. c #727D8F",
"y. c #737F8F",
"u. c #6F7E91",
"i. c #717C90",
"p. c #707D90",
"a. c #727D91",
"s. c #717E91",
"d. c #737E90",
"f. c #737E92",
"g. c #727F92",
"h. c #747F91",
"j. c #767E91",
"k. c #747F93",
"l. c #777F92",
"z. c #718093",
"x. c #738093",
"c. c #758092",
"v. c #768193",
"b. c #728194",
"n. c #738295",
"m. c #758094",
"M. c #748194",
"N. c #768195",
"B. c #758295",
"V. c #778294",
"C. c #748396",
"Z. c #778296",
"A. c #768396",
"S. c #758497",
"D. c #778497",
"F. c #788395",
"G. c #788397",
"H. c #798496",
"J. c #7A8597",
"K. c #7C8497",
"L. c #7B8398",
"P. c #788598",
"I. c #7D859A",
"U. c #7C879B",
"Y. c #7E869B",
"T. c #7D889A",
"R. c #7E899B",
"E. c #7D889C",
"W. c #7E899D",
"Q. c #7D8A9D",
"!. c #7F8A9E",
"~. c #80889D",
"^. c #81899E",
"/. c #828D9F",
"(. c #828DA1",
"). c #838EA0",
"_. c #848FA3",
"`. c #8590A4",
"'. c #8792A6",
"]. c #8A95A7",
"[. c #8E99AD",
"{. c #8F9AAE",
"}. c #909BAF",
"|. c #939BB0",
" X c #929DB1",
".X c #959DB2",
"XX c #9DA5BA",
"oX c #9EA9BB",
"OX c #9EA9BD",
"+X c #A8B0C5",
"@X c #A9B4C8",
"#X c #ADB5CA",
"$X c #AEB6CB",
"%X c #B1B9CE",
/* pixels */
"O < v N N 0 4 0 0 k N n k S S n t w + X ",
"& Y.XX|..X+X%X#X#X#X@XOX X{.}.{.].oXL 1 ",
"N ~.Y._ ;.~.`.`.Q.Q.Q.B.7.7.k.B.t.J.` A ",
"N Y.Y.Y.~.L.7.g.7.;.7.g.g.k.B.B.G.J.k.n ",
"N (.Y.g.e.7.=.g.7.=.7.B.B.B.B.g.B.T.t $ ",
"N _.B.=.=.g.7.7.7.7.z.D.B.B.P.D.k.=.k * ",
"t Q.B.g.,.=.=.7.z.z.B.D.n.n.B.B.;.` 2.; ",
"n P.,.7.=.7.7.g.B.B.B.B.n.B.z.3.I 7._ l ",
"t 7.~ 7.,.7.g.B.B.g.n.n.z.D.u.Y E ;.=.w ",
"t 7.R =.,.q.B.D.B.z.B.B.z.B.u.Q I +.} , ",
"t g.~  .7.z.B.D.B.B.D.D.n.D.z.} T 7.=.; ",
"q B. .7.B.B.z.B.B.B.B.B.n.D.n.7.~ ;.} ; ",
"5 B.;.g.G.G.z.B.B.z.g.q.g.B.z.7.} =.} 2 ",
"5 k.=.g.B.B.B.B.B.g.7.,.7.q.7.,.=.;.} 0 ",
"t g.=.B.B.B.B.B.7.7.,.=.7.7.=.,.=.;.} 5 ",
"k g.=.G.G.B.B.g.=.;.,.,.7.,.=.7.=.g.;.0 ",
"0 } /.c.t.c.k.2.E ` =.2.2.;.=._ X.k...k ",
"0 K +.T.(.T.t.+.+.+.+.2.e.c.B.g.k.K.X.N ",
"& .   = L _ I x x F K N 3 3 N K x x - @ ",
"# , 3 K N a a a x l k a 3 0 k k N k % O "
};
